<?xml version="1.0" standalone="no"?>
<!DOCTYPE svg PUBLIC "-//W3C//DTD SVG 20010904//EN"
 "http://www.w3.org/TR/2001/REC-SVG-20010904/DTD/svg10.dtd">
<svg version="1.0" xmlns="http://www.w3.org/2000/svg"
 width="298.000000pt" height="298.000000pt" viewBox="0 0 298.000000 298.000000"
 preserveAspectRatio="xMidYMid meet">
<metadata>
Created by potrace 1.10, written by Peter Selinger 2001-2011
</metadata>
<g transform="translate(0.000000,298.000000) scale(0.100000,-0.100000)"
fill="#000000" stroke="none">
<path d="M1390 2693 c-8 -3 -36 -19 -62 -37 -38 -25 -51 -41 -64 -79 -14 -42
-19 -48 -38 -42 -89 27 -97 28 -159 11 -93 -26 -139 -57 -200 -138 -104 -139
-117 -188 -92 -343 7 -44 16 -118 20 -165 7 -83 32 -161 55 -175 8 -5 10 -2 6
11 -3 11 -1 26 4 34 7 10 9 -2 8 -40 -2 -47 4 -67 42 -143 43 -87 44 -88 78
-85 34 3 35 2 52 -53 9 -31 33 -90 53 -130 28 -57 37 -88 38 -134 3 -79 11
-96 94 -189 92 -104 230 -198 282 -192 48 6 101 45 199 146 127 129 134 142
134 222 0 56 7 85 40 165 21 54 44 119 51 145 11 46 12 47 47 45 l36 -2 59
116 c50 98 60 128 69 198 10 84 7 111 -25 262 -14 61 -52 172 -79 226 -10 21
-72 85 -168 173 -146 135 -378 229 -480 193z m94 -19 c9 -3 13 -10 10 -15 -3
-5 2 -9 10 -9 8 0 18 4 21 10 4 6 19 5 41 -5 18 -7 34 -12 34 -9 0 10 66 -29
83 -50 10 -11 15 -15 11 -7 -4 9 -2 12 7 9 8 -3 13 -11 11 -17 -1 -7 2 -10 7
-7 12 8 71 -23 78 -40 3 -8 9 -12 13 -9 4 3 10 -5 13 -16 3 -12 10 -18 15 -15
11 7 65 -48 55 -57 -3 -4 4 -7 16 -7 12 0 19 -4 16 -10 -3 -5 -2 -10 3 -10 17
0 84 -75 90 -101 2 -8 9 -21 16 -29 8 -8 11 -21 9 -27 -3 -7 0 -13 7 -13 6 0
9 -3 7 -8 -3 -4 4 -25 14 -47 11 -22 17 -46 14 -53 -3 -8 0 -21 6 -28 6 -8 9
-23 6 -34 -3 -11 -1 -23 4 -26 5 -3 9 -33 9 -67 0 -34 4 -56 8 -50 5 8 8 -1 9
-22 1 -19 -3 -35 -8 -35 -5 0 -6 -19 -3 -42 6 -41 6 -42 -10 -23 -15 19 -16
17 -14 -40 2 -62 -15 -109 -48 -136 -15 -11 -14 -8 3 21 12 19 24 51 28 71 6
30 2 41 -18 63 -27 29 -37 33 -37 12 0 -8 11 -23 25 -34 13 -11 22 -21 20 -23
-2 -3 -6 -18 -9 -34 -3 -17 -18 -41 -33 -54 -25 -22 -26 -24 -9 -36 16 -12 16
-17 4 -42 -9 -19 -22 -29 -41 -31 -30 -4 -32 1 -16 62 7 30 19 48 40 60 16 9
29 20 30 24 5 44 3 59 -9 59 -9 0 -12 -9 -10 -29 3 -15 2 -26 0 -23 -3 3 -11
-4 -19 -15 -8 -11 -20 -20 -28 -20 -9 0 -16 -17 -20 -47 -10 -75 -14 -91 -30
-106 -8 -8 -11 -17 -8 -21 8 -8 -18 -86 -28 -86 -5 0 -6 -6 -3 -13 2 -7 -12
-47 -33 -88 -33 -67 -38 -72 -44 -49 -4 14 -7 18 -8 10 0 -8 2 -26 6 -38 4
-18 8 -20 14 -10 17 25 9 -92 -7 -125 -22 -41 -123 -147 -141 -147 -8 0 -12
-4 -9 -8 6 -11 -40 -53 -48 -45 -3 4 -6 -1 -6 -10 0 -9 -7 -17 -15 -17 -8 0
-15 -3 -15 -7 0 -10 -49 -33 -68 -33 -58 0 -273 164 -255 194 3 5 1 6 -4 3
-14 -9 -37 19 -28 32 3 6 0 9 -7 6 -20 -8 -48 47 -54 107 -3 29 -8 57 -12 62
-3 5 0 6 6 2 18 -11 14 20 -3 34 -9 7 -14 19 -11 27 3 8 2 12 -3 9 -4 -3 -13
5 -18 17 -34 70 -43 98 -37 109 4 7 3 8 -4 4 -12 -7 -17 16 -14 57 1 10 -2 16
-7 12 -10 -6 -13 1 -37 90 -22 83 -22 381 0 443 10 27 11 42 4 42 -6 0 -8 13
-6 30 3 17 1 33 -4 36 -4 3 -5 17 -1 32 12 48 44 96 99 148 30 29 54 55 54 58
0 3 -9 6 -20 6 -11 0 -20 -6 -20 -13 0 -7 -20 -33 -45 -57 -24 -24 -43 -46
-40 -48 2 -2 -5 -13 -15 -24 -19 -21 -30 -84 -28 -168 1 -82 -1 -97 -13 -80
-7 11 -9 -16 -4 -92 l6 -108 -25 0 c-13 0 -32 -7 -40 -16 -17 -17 -22 -49 -6
-39 6 3 10 12 10 20 0 20 19 28 34 15 11 -8 15 -8 19 2 3 7 6 3 6 -9 1 -13 -3
-23 -9 -23 -14 0 -12 -30 4 -59 8 -14 12 -31 9 -39 -8 -20 -43 22 -43 53 0 26
-14 34 -23 13 -7 -21 9 -54 39 -77 23 -18 28 -29 25 -58 -2 -25 1 -33 9 -28 6
4 9 16 6 28 -3 11 -1 16 4 11 4 -5 10 -20 12 -34 3 -22 -1 -25 -31 -28 l-34
-3 5 45 c3 25 2 46 -3 46 -24 0 -47 46 -54 106 -6 57 -9 65 -31 70 -13 3 -24
13 -24 21 0 8 -4 12 -9 9 -5 -4 -4 7 2 23 8 21 8 38 0 62 -11 34 -11 34 -8
-11 4 -38 3 -40 -4 -15 -12 43 -13 105 -1 105 6 0 10 7 10 15 0 18 -16 20 -23
3 -3 -7 -6 -2 -6 12 -1 33 13 55 29 45 9 -5 11 -4 6 4 -4 6 -15 9 -25 6 -13
-4 -17 1 -16 17 0 13 3 28 8 35 8 13 -1 45 -12 39 -3 -2 -6 11 -7 30 0 19 3
30 7 23 4 -7 7 4 6 24 -1 21 6 44 16 55 9 10 17 24 17 30 0 7 4 12 9 12 5 0
13 9 16 20 4 11 21 34 38 51 18 17 25 28 17 24 -8 -3 -6 1 4 9 11 9 24 16 29
16 4 0 6 4 3 9 -8 12 20 22 42 15 14 -5 15 -4 2 5 -13 10 -13 12 0 20 8 5 18
7 22 5 4 -3 8 1 9 8 0 10 2 10 6 1 2 -7 14 -13 26 -12 21 0 21 1 2 8 -17 7
-16 9 13 16 36 7 154 -3 148 -13 -2 -4 3 -14 12 -22 14 -13 15 -12 9 3 -4 10
0 20 11 26 17 9 22 10 45 12 7 0 5 3 -4 7 -15 6 -15 11 2 50 15 35 23 42 46
42 20 0 24 3 14 9 -11 7 -10 11 7 20 27 14 45 14 36 -1 -4 -7 -3 -8 5 -4 6 4
9 12 6 17 -7 10 54 12 79 3z m-544 -1089 c0 -8 -2 -15 -4 -15 -2 0 -6 7 -10
15 -3 8 -1 15 4 15 6 0 10 -7 10 -15z"/>
<path d="M1458 2663 c7 -3 16 -2 19 1 4 3 -2 6 -13 5 -11 0 -14 -3 -6 -6z"/>
<path d="M1600 2636 c0 -3 9 -10 20 -16 11 -6 20 -8 20 -6 0 3 -9 10 -20 16
-11 6 -20 8 -20 6z"/>
<path d="M1483 2603 c9 -11 14 -23 10 -26 -3 -4 1 -7 10 -7 29 0 26 15 -6 34
-31 17 -31 17 -14 -1z"/>
<path d="M1555 2606 c11 -8 29 -16 40 -16 27 0 7 16 -30 24 -29 7 -29 7 -10
-8z"/>
<path d="M1435 2600 c3 -5 10 -10 16 -10 5 0 9 5 9 10 0 6 -7 10 -16 10 -8 0
-12 -4 -9 -10z"/>
<path d="M1565 2558 c2 -23 19 -35 29 -20 3 5 -3 17 -13 26 -17 15 -18 15 -16
-6z"/>
<path d="M1408 2563 c6 -2 18 -2 25 0 6 3 1 5 -13 5 -14 0 -19 -2 -12 -5z"/>
<path d="M1455 2551 c-18 -7 -17 -8 7 -13 19 -4 25 -1 21 9 -3 7 -6 13 -7 12
0 0 -10 -4 -21 -8z"/>
<path d="M1767 2539 c7 -7 15 -10 18 -7 3 3 -2 9 -12 12 -14 6 -15 5 -6 -5z"/>
<path d="M1318 2533 c6 -2 18 -2 25 0 6 3 1 5 -13 5 -14 0 -19 -2 -12 -5z"/>
<path d="M1255 2510 c-2 -3 14 -7 36 -8 21 -2 39 -1 39 2 0 7 -71 13 -75 6z"/>
<path d="M1591 2516 c2 -2 15 -9 29 -15 24 -11 24 -11 6 3 -16 13 -49 24 -35
12z"/>
<path d="M1415 2500 c26 -11 65 -12 65 -2 0 4 -19 8 -43 8 -30 1 -36 -1 -22
-6z"/>
<path d="M1553 2488 c1 -15 4 -25 8 -22 4 2 14 -3 22 -11 12 -11 16 -12 20 -2
7 19 -13 49 -28 43 -8 -3 -16 0 -19 7 -2 7 -4 0 -3 -15z m40 -12 c4 -10 1 -13
-9 -9 -7 3 -14 9 -14 14 0 14 17 10 23 -5z"/>
<path d="M1686 2492 c-3 -6 -2 -13 4 -17 6 -4 8 -11 4 -16 -3 -5 -10 -7 -15
-4 -5 3 -6 -1 -3 -10 4 -8 14 -20 24 -25 15 -8 17 -4 15 25 -1 38 -18 64 -29
47z m24 -52 c0 -5 -4 -10 -10 -10 -5 0 -10 5 -10 10 0 6 5 10 10 10 6 0 10 -4
10 -10z"/>
<path d="M1843 2475 c0 -8 4 -12 8 -9 4 2 12 -4 18 -13 6 -10 11 -13 11 -7 0
6 -8 18 -18 27 -15 14 -19 15 -19 2z"/>
<path d="M1268 2473 c-10 -2 -18 -9 -18 -14 0 -6 5 -7 12 -3 6 4 25 11 42 15
26 6 27 7 6 7 -14 0 -33 -2 -42 -5z"/>
<path d="M1630 2460 c-9 -6 -10 -10 -3 -10 6 0 15 5 18 10 8 12 4 12 -15 0z"/>
<path d="M1434 2451 c7 -11 46 -35 46 -28 0 3 -12 12 -26 22 -15 9 -23 12 -20
6z"/>
<path d="M1804 2440 c0 -13 4 -16 10 -10 7 7 7 13 0 20 -6 6 -10 3 -10 -10z"/>
<path d="M1191 2421 c-9 -6 -10 -11 -2 -15 6 -4 11 -3 11 3 0 5 10 12 23 14
19 4 19 4 2 5 -11 1 -26 -2 -34 -7z"/>
<path d="M1293 2423 c15 -2 39 -2 55 0 15 2 2 4 -28 4 -30 0 -43 -2 -27 -4z"/>
<path d="M1607 2419 c7 -7 15 -10 18 -7 3 3 -2 9 -12 12 -14 6 -15 5 -6 -5z"/>
<path d="M1658 2408 c12 -13 22 -30 22 -38 0 -7 3 -11 6 -7 11 11 -7 47 -29
58 l-22 12 23 -25z"/>
<path d="M1048 2413 c6 -2 18 -2 25 0 6 3 1 5 -13 5 -14 0 -19 -2 -12 -5z"/>
<path d="M1353 2413 c-18 -2 -33 -8 -33 -13 0 -4 16 -6 35 -3 27 4 40 -1 62
-21 l28 -26 -22 -6 c-13 -4 -23 -11 -23 -16 0 -5 4 -7 9 -4 4 3 16 -12 26 -34
10 -22 20 -38 22 -36 3 2 -3 20 -12 40 -9 19 -14 40 -10 46 9 14 25 3 19 -13
-2 -7 5 -22 16 -34 11 -12 20 -25 20 -28 0 -15 109 -155 147 -188 24 -22 40
-44 37 -50 -5 -8 -2 -7 7 0 11 11 7 19 -20 47 -23 24 -29 35 -19 39 19 8 -12
28 -34 21 -13 -4 -16 1 -14 20 2 14 0 23 -5 21 -4 -3 -9 -2 -12 2 -2 5 -2 2 0
-5 1 -7 -2 -10 -7 -7 -6 3 -10 13 -10 21 0 8 -4 14 -9 14 -15 0 -22 33 -9 41
7 4 9 12 4 16 -5 4 -11 2 -13 -4 -8 -23 -25 -14 -19 10 4 17 -3 32 -23 55 -16
17 -28 39 -27 49 2 10 1 12 -1 5 -3 -9 -15 -3 -36 18 -17 16 -33 29 -36 28 -3
0 -21 -3 -38 -5z m149 -128 c11 -20 11 -20 -11 -1 -11 11 -21 26 -21 35 0 14
2 14 10 1 6 -8 16 -24 22 -35z m128 -165 c0 -5 -4 -10 -10 -10 -5 0 -10 5 -10
10 0 6 5 10 10 10 6 0 10 -4 10 -10z"/>
<path d="M1844 2409 c-10 -17 13 -36 27 -22 12 12 4 33 -11 33 -5 0 -12 -5
-16 -11z m26 -9 c0 -5 -4 -10 -10 -10 -5 0 -10 5 -10 10 0 6 5 10 10 10 6 0
10 -4 10 -10z"/>
<path d="M1160 2393 c0 -5 5 -15 10 -23 8 -12 10 -11 10 8 0 12 -4 22 -10 22
-5 0 -10 -3 -10 -7z"/>
<path d="M1630 2392 c0 -6 5 -14 11 -17 6 -4 8 -13 5 -21 -3 -8 0 -11 10 -7
18 7 18 10 -6 35 -11 12 -20 17 -20 10z"/>
<path d="M1058 2383 c7 -3 16 -2 19 1 4 3 -2 6 -13 5 -11 0 -14 -3 -6 -6z"/>
<path d="M1170 2330 c0 -5 5 -10 10 -10 6 0 10 5 10 10 0 6 -4 10 -10 10 -5 0
-10 -4 -10 -10z"/>
<path d="M1215 2330 c-8 -13 3 -30 18 -30 7 0 6 4 -3 10 -13 9 -13 11 0 20 9
6 10 10 3 10 -6 0 -15 -4 -18 -10z"/>
<path d="M1570 2334 c0 -3 7 -12 15 -20 16 -17 18 -14 9 10 -6 15 -24 23 -24
10z"/>
<path d="M1875 2304 c8 -20 15 -38 15 -40 0 -2 4 -4 9 -4 6 0 3 12 -5 28 -7
15 -14 33 -14 40 0 6 -5 12 -10 12 -6 0 -4 -15 5 -36z"/>
<path d="M1190 2300 c0 -5 5 -10 11 -10 5 0 7 5 4 10 -3 6 -8 10 -11 10 -2 0
-4 -4 -4 -10z"/>
<path d="M1826 2287 c3 -10 9 -15 12 -12 3 3 0 11 -7 18 -10 9 -11 8 -5 -6z"/>
<path d="M833 2245 c-3 -9 -3 -18 -1 -21 3 -3 8 4 11 16 6 23 -1 27 -10 5z"/>
<path d="M1707 2240 c-3 -11 -1 -23 4 -26 5 -3 9 6 9 20 0 31 -6 34 -13 6z"/>
<path d="M1783 2238 c9 -15 17 -36 17 -46 0 -10 7 -27 16 -38 15 -19 16 -19 9
1 -4 11 -11 34 -16 51 -5 18 -17 38 -26 45 -17 13 -17 12 0 -13z"/>
<path d="M1460 2233 c0 -5 13 -17 28 -27 l27 -19 -24 26 c-26 28 -31 32 -31
20z"/>
<path d="M1670 2227 c0 -3 11 -18 25 -33 14 -15 25 -23 25 -17 0 5 -11 20 -25
33 -14 13 -25 21 -25 17z"/>
<path d="M1145 2210 c3 -5 8 -10 11 -10 2 0 4 5 4 10 0 6 -5 10 -11 10 -5 0
-7 -4 -4 -10z"/>
<path d="M1654 2200 c0 -13 4 -16 10 -10 7 7 7 13 0 20 -6 6 -10 3 -10 -10z"/>
<path d="M1730 2215 c0 -5 8 -23 19 -38 15 -23 19 -25 25 -12 3 9 2 13 -4 10
-5 -3 -16 7 -24 22 -8 15 -15 24 -16 18z"/>
<path d="M1892 2160 c0 -14 2 -19 5 -12 2 6 2 18 0 25 -3 6 -5 1 -5 -13z"/>
<path d="M1911 2154 c0 -11 3 -14 6 -6 3 7 2 16 -1 19 -3 4 -6 -2 -5 -13z"/>
<path d="M1081 2144 c0 -11 3 -14 6 -6 3 7 2 16 -1 19 -3 4 -6 -2 -5 -13z"/>
<path d="M1050 2139 c0 -5 5 -7 10 -4 6 3 10 8 10 11 0 2 -4 4 -10 4 -5 0 -10
-5 -10 -11z"/>
<path d="M1520 2141 c0 -5 7 -11 15 -15 8 -3 15 -1 15 3 0 5 -7 11 -15 15 -8
3 -15 1 -15 -3z"/>
<path d="M1560 2121 c0 -6 4 -13 10 -16 6 -3 7 1 4 9 -7 18 -14 21 -14 7z"/>
<path d="M831 2104 c0 -11 3 -14 6 -6 3 7 2 16 -1 19 -3 4 -6 -2 -5 -13z"/>
<path d="M1667 2089 c7 -7 15 -10 18 -7 3 3 -2 9 -12 12 -14 6 -15 5 -6 -5z"/>
<path d="M1603 2069 c-2 -23 3 -25 10 -4 4 8 3 16 -1 19 -4 3 -9 -4 -9 -15z"/>
<path d="M1704 2061 c3 -14 0 -32 -6 -40 -10 -13 -10 -14 2 -3 22 19 35 14 16
-7 -14 -16 -21 -17 -41 -7 -14 6 -23 16 -20 23 2 7 -1 15 -7 19 -7 5 -8 2 -3
-6 6 -10 2 -12 -17 -8 -26 5 -55 -16 -38 -27 6 -4 8 -11 5 -16 -4 -5 -1 -9 5
-9 6 0 8 -5 5 -11 -4 -6 1 -5 13 2 15 9 17 15 8 25 -6 6 -14 10 -18 7 -5 -2
-8 1 -8 6 0 15 5 14 46 -8 l37 -20 -27 -7 c-14 -3 -26 -10 -26 -15 0 -12 14
-11 26 1 6 6 24 14 42 19 26 8 35 6 56 -14 15 -13 26 -19 26 -14 0 6 5 7 11 3
7 -4 10 -3 7 2 -20 44 -33 64 -41 64 -5 0 -2 -12 8 -26 9 -14 15 -28 12 -30
-6 -6 -38 32 -41 49 -1 8 -7 21 -13 28 -5 8 -13 21 -17 29 -3 8 -4 4 -2 -9z"/>
<path d="M1119 2044 c-7 -9 -25 -20 -39 -26 -23 -8 -23 -10 -7 -19 9 -6 15
-14 12 -20 -7 -10 23 -1 41 12 6 5 34 3 63 -5 44 -11 51 -11 47 0 -10 27 59
16 95 -13 18 -16 29 -22 25 -14 -5 7 -9 23 -10 34 -1 16 -12 24 -50 33 -49 13
-71 11 -61 -6 9 -14 -52 -22 -75 -10 -16 9 -25 8 -38 -2 -13 -9 -12 -7 2 10
11 12 25 22 32 22 7 0 16 5 19 10 10 17 -42 11 -56 -6z"/>
<path d="M1216 2045 c-8 -8 -25 -15 -38 -16 -23 -1 -23 -1 2 -8 18 -5 30 -2
43 12 26 30 21 39 -7 12z"/>
<path d="M1355 2015 c4 -11 11 -33 16 -50 8 -28 8 -27 4 8 -3 34 7 50 18 27 3
-6 4 -5 3 2 -2 7 -9 13 -17 13 -8 0 -18 5 -22 10 -5 6 -6 1 -2 -10z"/>
<path d="M1814 1986 c44 -39 136 -90 136 -76 0 6 -15 16 -34 24 -18 8 -37 19
-40 25 -10 16 3 13 20 -4 9 -8 23 -14 32 -14 14 1 14 2 -1 6 -10 3 -16 10 -14
17 4 10 -5 12 -34 10 -25 -2 -38 1 -36 8 1 6 -14 17 -33 25 l-35 14 39 -35z"/>
<path d="M2041 1994 c0 -11 3 -14 6 -6 3 7 2 16 -1 19 -3 4 -6 -2 -5 -13z"/>
<path d="M1560 1990 c0 -5 5 -10 11 -10 5 0 7 5 4 10 -3 6 -8 10 -11 10 -2 0
-4 -4 -4 -10z"/>
<path d="M1256 1969 c2 -4 12 -5 23 -2 13 3 25 -5 40 -26 12 -17 27 -31 34
-31 6 0 -4 16 -23 35 -21 22 -42 34 -56 33 -12 -1 -21 -5 -18 -9z"/>
<path d="M1390 1953 c0 -12 5 -25 10 -28 13 -8 13 15 0 35 -8 12 -10 11 -10
-7z"/>
<path d="M1557 1946 c-4 -10 -1 -13 9 -9 15 6 19 23 5 23 -5 0 -11 -7 -14 -14z"/>
<path d="M1810 1946 c0 -2 9 -6 20 -9 11 -3 18 -1 14 4 -5 9 -34 13 -34 5z"/>
<path d="M1097 1929 c7 -7 15 -10 18 -7 3 3 -2 9 -12 12 -14 6 -15 5 -6 -5z"/>
<path d="M1600 1920 c0 -5 5 -10 11 -10 5 0 7 5 4 10 -3 6 -8 10 -11 10 -2 0
-4 -4 -4 -10z"/>
<path d="M1959 1908 c-3 -7 -2 -65 2 -128 3 -63 6 -99 8 -80 2 29 4 31 11 15
7 -18 8 -17 15 9 5 16 4 31 -2 35 -6 3 -13 39 -17 79 -5 59 -4 72 8 72 8 0 17
-5 19 -10 3 -6 4 -5 3 2 -3 18 -42 22 -47 6z"/>
<path d="M1425 1900 c3 -5 8 -10 11 -10 2 0 4 5 4 10 0 6 -5 10 -11 10 -5 0
-7 -4 -4 -10z"/>
<path d="M1551 1864 c-2 -46 12 -57 37 -31 8 7 48 13 110 14 53 1 98 6 100 11
2 7 15 7 35 1 54 -15 54 -10 2 18 -35 18 -70 27 -118 31 l-68 5 -38 -41 c-30
-32 -41 -38 -45 -26 -10 27 -7 42 12 46 14 3 14 5 -4 9 -18 6 -21 1 -23 -37z
m134 26 c3 -5 1 -10 -4 -10 -6 0 -11 5 -11 10 0 6 2 10 4 10 3 0 8 -4 11 -10z
m30 0 c3 -5 1 -10 -4 -10 -6 0 -11 5 -11 10 0 6 2 10 4 10 3 0 8 -4 11 -10z
m-58 -20 c2 -22 1 -23 -21 -14 -13 5 -14 9 -5 20 16 19 24 17 26 -6z m103 1
c0 -5 -9 -11 -19 -14 -14 -3 -18 -1 -14 9 6 15 33 19 33 5z"/>
<path d="M1142 1877 c-45 -22 -57 -39 -20 -29 14 3 19 1 14 -6 -9 -15 20 -5
55 19 26 18 26 18 39 -7 21 -38 48 -29 77 25 1 1 8 -3 16 -10 13 -12 12 -16
-7 -27 -21 -12 -21 -12 4 -10 14 1 31 -1 38 -6 10 -6 9 0 -2 23 -9 17 -25 35
-36 41 -32 17 -130 10 -178 -13z m53 3 c-3 -5 -12 -10 -18 -10 -7 0 -6 4 3 10
19 12 23 12 15 0z m65 0 c0 -5 -4 -10 -10 -10 -5 0 -10 5 -10 10 0 6 5 10 10
10 6 0 10 -4 10 -10z m30 0 c0 -5 -5 -10 -11 -10 -5 0 -7 5 -4 10 3 6 8 10 11
10 2 0 4 -4 4 -10z"/>
<path d="M1482 1870 c0 -19 2 -27 5 -17 2 9 2 25 0 35 -3 9 -5 1 -5 -18z"/>
<path d="M1409 1863 c0 -11 -3 -13 -6 -5 -2 6 -14 12 -25 12 -22 0 -16 -15 5
-15 7 0 11 -9 10 -20 -1 -20 -1 -20 13 -1 8 11 14 26 14 33 0 20 -10 16 -11
-4z"/>
<path d="M862 1850 c0 -14 2 -19 5 -12 2 6 2 18 0 25 -3 6 -5 1 -5 -13z"/>
<path d="M962 1840 c0 -14 2 -19 5 -12 2 6 2 18 0 25 -3 6 -5 1 -5 -13z"/>
<path d="M1190 1840 c0 -5 10 -10 23 -10 18 0 19 2 7 10 -19 13 -30 13 -30 0z"/>
<path d="M1520 1835 c-4 -34 1 -59 17 -83 8 -13 12 -30 9 -38 -3 -9 -1 -12 4
-9 13 8 13 38 0 51 -6 6 -14 30 -19 55 -5 24 -10 35 -11 24z"/>
<path d="M1780 1828 c-14 -5 -59 -7 -100 -5 -71 5 -73 5 -40 -8 54 -21 124
-19 151 5 27 22 25 23 -11 8z"/>
<path d="M1826 1823 c5 -5 12 -12 15 -16 3 -5 9 -2 12 7 5 12 0 16 -15 16 -12
0 -17 -3 -12 -7z"/>
<path d="M1990 1819 c0 -5 5 -7 10 -4 6 3 10 8 10 11 0 2 -4 4 -10 4 -5 0 -10
-5 -10 -11z"/>
<path d="M1245 1810 c-32 -4 -66 -5 -75 -2 -10 3 -12 2 -5 -5 14 -14 94 -23
101 -11 3 5 17 8 32 6 14 -2 27 3 29 10 3 6 -1 11 -9 11 -7 -1 -40 -5 -73 -9z"/>
<path d="M878 1803 c7 -3 16 -2 19 1 4 3 -2 6 -13 5 -11 0 -14 -3 -6 -6z"/>
<path d="M1522 1720 c0 -14 2 -19 5 -12 2 6 2 18 0 25 -3 6 -5 1 -5 -13z"/>
<path d="M1566 1705 c-4 -15 -5 -30 -1 -33 3 -3 5 0 5 8 0 18 27 -6 45 -39 11
-22 11 -29 -1 -46 -10 -14 -17 -16 -22 -8 -7 11 -25 16 -54 14 -28 -2 -21 -21
8 -21 20 0 25 -4 20 -16 -3 -9 -6 -18 -6 -20 0 -10 -18 -3 -38 15 -12 10 -19
21 -15 25 8 8 -10 8 -31 0 -9 -3 -16 -10 -16 -16 0 -5 5 -6 12 -2 7 4 8 3 4
-5 -9 -14 -26 -5 -26 14 0 17 -42 30 -66 21 -8 -3 -13 -10 -10 -15 3 -5 -4 -7
-16 -4 -23 6 -23 6 2 -18 20 -20 35 -24 81 -24 32 0 53 3 47 6 -24 15 19 14
45 0 26 -15 29 -15 40 0 7 9 22 19 35 23 12 4 20 11 17 16 -3 5 -1 11 5 15 10
6 3 55 -9 65 -4 3 -16 20 -28 39 l-20 33 -7 -27z m-126 -142 c0 -7 -6 -10 -14
-7 -8 3 -17 1 -21 -5 -11 -18 -23 -12 -18 8 5 21 53 25 53 4z"/>
<path d="M1384 1682 c6 -10 1 -11 -18 -6 -17 4 -26 2 -26 -5 0 -7 -13 -26 -30
-44 -16 -18 -30 -35 -30 -39 0 -18 17 -5 42 30 15 22 35 38 48 39 30 2 36 11
20 26 -10 9 -11 9 -6 -1z"/>
<path d="M1022 1640 c0 -14 2 -19 5 -12 2 6 2 18 0 25 -3 6 -5 1 -5 -13z"/>
<path d="M1240 1640 c0 -11 2 -20 4 -20 2 0 6 9 9 20 3 11 1 20 -4 20 -5 0 -9
-9 -9 -20z"/>
<path d="M1510 1649 c0 -5 5 -7 10 -4 6 3 10 8 10 11 0 2 -4 4 -10 4 -5 0 -10
-5 -10 -11z"/>
<path d="M1414 1618 c12 -7 21 -7 28 0 6 6 0 10 -18 10 -23 0 -24 -2 -10 -10z"/>
<path d="M1335 1600 c3 -5 8 -10 11 -10 2 0 4 5 4 10 0 6 -5 10 -11 10 -5 0
-7 -4 -4 -10z"/>
<path d="M1030 1587 c0 -10 8 -17 18 -17 9 0 13 4 7 8 -5 4 -13 11 -17 16 -5
5 -8 2 -8 -7z"/>
<path d="M1995 1581 c-3 -5 -2 -12 3 -15 5 -3 9 1 9 9 0 17 -3 19 -12 6z"/>
<path d="M961 1554 c0 -11 3 -14 6 -6 3 7 2 16 -1 19 -3 4 -6 -2 -5 -13z"/>
<path d="M1660 1550 c0 -5 5 -10 10 -10 6 0 10 5 10 10 0 6 -4 10 -10 10 -5 0
-10 -4 -10 -10z"/>
<path d="M1826 1543 c-6 -14 -5 -15 5 -6 7 7 10 15 7 18 -3 3 -9 -2 -12 -12z"/>
<path d="M1460 1490 c9 -17 14 -18 32 -9 16 9 18 13 7 20 -8 5 -16 3 -21 -4
-6 -9 -8 -9 -8 1 0 6 -5 12 -10 12 -7 0 -7 -7 0 -20z"/>
<path d="M1538 1501 c12 -7 62 -4 62 5 0 2 -17 4 -37 4 -24 0 -33 -3 -25 -9z"/>
<path d="M1665 1500 c3 -5 8 -10 11 -10 2 0 4 5 4 10 0 6 -5 10 -11 10 -5 0
-7 -4 -4 -10z"/>
<path d="M1323 1480 c1 -11 5 -20 9 -20 4 0 8 9 8 20 0 11 -4 20 -9 20 -6 0
-9 -9 -8 -20z"/>
<path d="M1275 1460 c-3 -5 1 -10 10 -10 9 0 13 5 10 10 -3 6 -8 10 -10 10 -2
0 -7 -4 -10 -10z"/>
<path d="M1875 1445 c0 -13 3 -21 8 -18 4 2 7 10 7 18 0 8 -3 16 -7 18 -5 3
-8 -5 -8 -18z"/>
<path d="M1364 1445 c-17 -13 -17 -14 -1 -15 9 0 17 4 17 9 0 5 8 12 18 14 13
4 14 5 1 6 -8 0 -24 -6 -35 -14z"/>
<path d="M1576 1446 c3 -8 9 -15 12 -14 20 2 32 -3 27 -12 -4 -7 -13 -7 -24 0
-12 6 -31 6 -54 -1 -38 -10 -182 -7 -193 4 -12 11 -26 8 -18 -4 4 -7 0 -9 -14
-5 -12 4 -26 1 -36 -9 -24 -24 -19 -36 9 -21 16 9 76 13 182 15 87 0 173 3
191 6 17 2 32 0 32 -5 0 -6 4 -10 8 -10 5 0 9 7 9 15 0 8 -6 15 -14 15 -7 0
-13 5 -13 10 0 6 -8 5 -20 -2 -16 -10 -22 -10 -32 4 -7 9 -23 19 -35 23 -18 5
-22 3 -17 -9z"/>
<path d="M1480 1440 c0 -5 5 -10 10 -10 6 0 10 5 10 10 0 6 -4 10 -10 10 -5 0
-10 -4 -10 -10z"/>
<path d="M1623 1383 c-15 -6 -17 -33 -3 -33 6 0 10 7 10 16 0 8 4 13 9 9 5 -3
12 -1 16 5 6 10 -11 12 -32 3z"/>
<path d="M1353 1373 c-15 -5 -17 -23 -4 -23 5 0 11 7 15 15 3 8 4 15 3 14 -1
0 -8 -3 -14 -6z"/>
<path d="M1688 1373 c7 -3 16 -2 19 1 4 3 -2 6 -13 5 -11 0 -14 -3 -6 -6z"/>
<path d="M1385 1360 c-3 -5 -1 -10 4 -10 6 0 11 5 11 10 0 6 -2 10 -4 10 -3 0
-8 -4 -11 -10z"/>
<path d="M1381 1315 c0 -11 3 -15 5 -9 6 13 44 7 44 -7 0 -5 4 -9 10 -9 5 0 7
8 4 18 -4 10 -3 13 3 6 4 -6 29 -14 54 -17 41 -6 49 -3 70 20 21 23 22 25 4
18 -32 -12 -115 -18 -115 -9 0 5 -18 9 -40 9 -34 0 -40 -3 -39 -20z"/>
<path d="M1751 1324 c0 -11 3 -14 6 -6 3 7 2 16 -1 19 -3 4 -6 -2 -5 -13z"/>
<path d="M1822 1304 c-7 -8 -8 -14 -3 -14 10 0 25 19 20 25 -2 1 -10 -3 -17
-11z"/>
<path d="M1364 1285 c27 -14 51 -24 53 -21 6 6 -43 31 -77 40 -14 4 -3 -5 24
-19z"/>
<path d="M1577 1299 c-9 -6 -17 -14 -17 -19 0 -14 34 -12 51 3 8 6 12 11 10
10 -2 -2 -9 1 -15 6 -7 6 -18 6 -29 0z"/>
<path d="M1458 1273 c12 -2 32 -2 45 0 12 2 2 4 -23 4 -25 0 -35 -2 -22 -4z"/>
<path d="M1170 1212 c0 -12 60 -72 72 -72 4 0 5 -6 2 -14 -3 -9 4 -19 16 -26
15 -8 20 -8 16 -1 -9 14 0 14 25 1 15 -8 19 -7 19 5 0 8 -6 14 -12 13 -7 -2
-12 3 -10 11 2 8 -3 11 -12 8 -9 -4 -21 -1 -29 6 -7 7 -30 28 -50 46 -20 19
-37 30 -37 23z m100 -92 c0 -5 -4 -10 -10 -10 -5 0 -10 5 -10 10 0 6 5 10 10
10 6 0 10 -4 10 -10z"/>
<path d="M1760 1190 c-20 -18 -22 -23 -10 -31 13 -8 13 -10 0 -19 -8 -5 -10
-10 -4 -10 6 0 17 7 24 15 9 11 9 15 1 15 -7 0 -9 5 -6 10 4 6 10 8 15 5 12
-8 20 9 11 23 -5 9 -14 7 -31 -8z"/>
<path d="M1700 1152 c0 -4 -18 -18 -40 -32 -27 -17 -36 -28 -29 -35 7 -7 12
-6 17 1 4 6 24 22 45 36 29 19 34 27 22 31 -8 4 -15 3 -15 -1z"/>
<path d="M1338 1133 c7 -3 16 -2 19 1 4 3 -2 6 -13 5 -11 0 -14 -3 -6 -6z"/>
<path d="M1385 1100 c11 -5 27 -9 35 -9 9 0 8 4 -5 9 -11 5 -27 9 -35 9 -9 0
-8 -4 5 -9z"/>
<path d="M1698 1103 c7 -3 16 -2 19 1 4 3 -2 6 -13 5 -11 0 -14 -3 -6 -6z"/>
<path d="M1330 1092 c0 -18 111 -42 168 -36 73 8 102 23 46 24 -23 0 -57 2
-75 5 -29 4 -30 3 -9 -4 22 -8 21 -9 -15 -10 -22 0 -51 6 -65 14 -28 16 -50
19 -50 7z"/>
<path d="M1528 1033 c6 -2 18 -2 25 0 6 3 1 5 -13 5 -14 0 -19 -2 -12 -5z"/>
<path d="M1470 986 c0 -8 51 -13 56 -5 3 5 -9 9 -25 9 -17 0 -31 -2 -31 -4z"/>
<path d="M1081 1079 c-31 -50 -110 -101 -216 -141 -55 -20 -163 -60 -240 -89
-77 -28 -169 -62 -205 -75 -151 -53 -206 -77 -228 -97 -13 -12 -34 -58 -52
-116 -57 -190 -121 -437 -125 -491 l-4 -55 13 50 c10 37 14 45 19 30 4 -14 5
-10 4 10 -1 17 3 50 8 75 9 45 9 45 16 15 8 -29 8 -29 5 5 -4 36 13 130 23
130 3 0 7 10 7 23 1 12 4 31 7 42 3 11 8 32 12 47 4 16 11 26 15 23 5 -3 6 5
2 17 -3 13 -1 19 5 15 7 -4 11 7 11 31 1 43 20 101 22 67 1 -15 4 -13 10 8 5
16 6 35 3 43 -3 8 0 14 6 14 6 0 11 -4 11 -10 0 -5 4 -10 9 -10 5 0 7 9 4 20
-4 15 2 22 22 30 15 6 31 8 36 4 5 -3 9 0 9 6 0 7 6 10 12 8 7 -3 19 2 27 9 7
8 16 11 19 8 4 -3 0 -10 -8 -15 -8 -6 -10 -10 -4 -10 7 0 19 12 29 26 13 20
22 24 42 19 14 -3 22 -2 19 4 -3 5 12 12 34 16 22 4 40 11 40 16 0 5 6 9 13 9
8 0 28 7 45 15 17 9 44 17 60 18 17 1 28 5 26 8 -2 4 3 10 12 13 8 3 12 2 9
-3 -3 -5 -1 -13 5 -16 6 -4 9 -1 8 6 -2 7 6 15 16 17 11 2 26 11 34 19 11 10
17 11 22 3 5 -8 11 -7 22 3 8 8 30 18 49 22 19 4 40 12 46 17 7 6 22 8 34 5
15 -4 19 -2 15 9 -5 12 11 19 37 15 4 0 7 4 7 11 0 9 3 9 12 0 7 -7 17 -12 23
-12 5 0 3 5 -5 10 -13 8 -13 11 -1 22 12 11 13 10 7 -2 -4 -8 1 -4 12 9 11 14
30 26 42 28 20 3 21 0 19 -55 -1 -31 3 -67 9 -78 6 -12 8 -25 4 -29 -4 -5 0
-4 8 0 13 8 13 7 1 -9 -12 -14 -13 -55 -7 -234 3 -119 8 -237 11 -262 4 -36 3
-40 -5 -20 -9 23 -9 23 -4 -5 3 -16 9 -48 14 -70 5 -22 9 -56 9 -75 -1 -32 -2
-33 -9 -10 l-8 25 -1 -25 c0 -14 6 -34 14 -44 8 -11 15 -31 15 -45 0 -37 11
-71 22 -71 5 0 7 12 4 27 -21 102 -62 793 -47 793 4 0 11 -89 15 -197 7 -203
16 -336 23 -330 2 2 -1 86 -7 186 -7 127 -6 197 1 232 9 39 8 53 -3 66 -9 12
-9 15 0 9 17 -10 15 2 -13 59 -29 58 -34 164 -11 228 16 45 3 49 -23 6z"/>
<path d="M1866 1093 c4 -10 9 -59 12 -109 3 -83 1 -97 -25 -160 -25 -60 -33
-110 -24 -164 4 -20 21 35 26 84 8 66 24 120 24 81 0 -36 -34 -283 -40 -289
-3 -3 -4 13 -2 36 3 29 -1 50 -12 63 -15 19 -16 19 -10 -10 17 -91 6 -263 -27
-442 -19 -101 -33 -183 -32 -183 20 0 30 15 27 38 -3 20 -2 23 5 13 7 -10 9
-4 7 20 -1 19 2 45 7 59 9 25 24 114 33 204 3 28 9 64 14 80 5 17 10 51 10 75
1 24 8 57 16 74 17 34 20 50 5 27 -8 -13 -10 -12 -10 3 0 9 3 17 8 17 4 0 8
26 9 58 1 31 5 100 9 152 4 52 7 122 7 155 -1 46 1 54 8 36 6 -15 14 -21 24
-17 8 3 15 2 15 -2 0 -5 14 -19 31 -31 18 -13 28 -17 24 -10 -4 8 1 4 13 -7
11 -12 37 -25 56 -28 23 -5 34 -11 30 -18 -5 -7 -2 -9 9 -5 9 3 28 -3 43 -16
16 -12 25 -16 21 -9 -6 8 -3 10 7 6 9 -3 14 -10 11 -14 -3 -5 0 -12 6 -16 8
-5 9 -3 4 6 -6 10 -4 11 11 6 10 -5 27 -11 37 -14 14 -3 15 -7 6 -12 -7 -5 -3
-8 12 -8 41 1 109 -19 109 -32 0 -4 10 -6 22 -2 13 3 19 1 15 -5 -4 -7 13 -16
44 -23 37 -9 47 -15 38 -22 -11 -7 -9 -8 6 -7 11 1 29 -2 39 -6 19 -8 19 -9 0
-16 -18 -7 -18 -8 3 -8 12 -1 23 3 25 7 2 5 32 -2 66 -14 35 -12 60 -24 55
-26 -4 -3 -3 -3 4 -2 35 8 121 -80 109 -111 -3 -8 -1 -15 5 -15 7 0 9 -10 5
-26 -5 -18 -3 -24 4 -19 8 5 11 -1 9 -16 -1 -13 3 -35 8 -49 6 -14 8 -31 5
-39 -3 -9 -1 -12 6 -7 8 5 10 -3 6 -26 -4 -25 -3 -29 5 -18 9 12 11 11 12 -10
3 -39 4 -44 13 -58 4 -7 5 -32 2 -55 -3 -27 -3 -33 2 -17 8 23 9 22 24 -22 9
-26 14 -57 11 -69 -4 -15 -3 -20 5 -15 15 9 15 1 0 -27 -10 -21 -10 -21 7 -7
17 14 18 13 11 -13 -4 -19 -3 -26 4 -22 5 3 10 -1 10 -9 0 -9 4 -16 9 -16 13
0 -2 65 -64 279 -30 107 -63 225 -71 263 -22 95 -45 118 -169 163 -150 55
-351 133 -430 167 -38 16 -101 43 -140 59 -87 37 -157 87 -193 139 -28 40 -51
54 -36 23z m69 -83 c3 -5 1 -10 -4 -10 -6 0 -11 5 -11 10 0 6 2 10 4 10 3 0 8
-4 11 -10z"/>
<path d="M1913 775 c0 -22 2 -30 4 -17 2 12 2 30 0 40 -3 9 -5 -1 -4 -23z"/>
<path d="M1434 780 c-11 -4 -48 -47 -82 -95 l-63 -87 22 -61 c20 -57 22 -78
20 -299 -1 -189 1 -238 11 -238 10 0 14 45 16 201 2 150 8 223 22 290 11 49
17 96 14 104 -4 8 -2 15 4 15 15 0 21 -25 11 -41 -5 -8 -9 -21 -8 -29 0 -8 7
-1 16 15 22 40 24 55 7 55 -8 0 -11 6 -8 15 4 8 1 15 -5 15 -6 0 -11 -4 -11
-10 0 -5 -7 -10 -15 -10 -9 0 -15 9 -15 23 0 37 12 67 23 60 5 -3 7 -2 4 4 -4
6 0 19 8 29 15 18 15 18 9 -1 -6 -18 -5 -17 10 3 13 17 27 22 61 22 24 0 47
-5 51 -12 4 -6 3 -8 -4 -4 -6 3 -14 1 -18 -5 -5 -9 0 -10 15 -6 25 6 53 -26
44 -51 -5 -11 -3 -13 8 -7 8 5 11 5 6 -1 -5 -5 -13 -10 -18 -10 -5 -1 -12 -2
-17 -3 -4 0 -13 -10 -20 -22 -10 -15 -10 -19 -1 -14 7 5 10 4 6 -2 -4 -6 0
-19 8 -29 8 -10 15 -37 16 -59 2 -35 3 -36 6 -10 3 16 10 33 16 37 9 6 9 8 1
8 -7 0 -14 9 -17 20 -3 11 -1 20 4 20 5 0 9 6 9 14 0 23 23 36 37 21 8 -9 9
-16 3 -20 -17 -11 -11 -20 15 -21 14 -1 25 0 25 3 0 9 -98 138 -119 157 -15
14 -29 17 -51 12 -19 -3 -29 -2 -25 4 7 12 -2 12 -31 0z m133 -152 c-3 -8 -6
-5 -6 6 -1 11 2 17 5 13 3 -3 4 -12 1 -19z m-207 -9 c0 -4 6 -14 14 -21 11
-12 11 -25 -5 -89 -27 -104 -30 -105 -23 -13 4 54 2 84 -5 88 -16 10 -13 43 4
43 8 0 15 -4 15 -8z m-13 -451 c-3 -7 -5 -2 -5 12 0 14 2 19 5 13 2 -7 2 -19
0 -25z"/>
<path d="M1356 577 c3 -10 9 -15 12 -12 3 3 0 11 -7 18 -10 9 -11 8 -5 -6z"/>
<path d="M455 750 c-19 -8 -19 -9 3 -9 12 -1 22 4 22 9 0 6 -1 10 -2 9 -2 0
-12 -4 -23 -9z"/>
<path d="M2458 743 c7 -3 16 -2 19 1 4 3 -2 6 -13 5 -11 0 -14 -3 -6 -6z"/>
<path d="M1170 725 c0 -6 4 -15 9 -20 5 -6 11 -19 14 -30 5 -20 5 -19 6 1 0
11 -6 29 -14 40 -8 10 -15 14 -15 9z"/>
<path d="M1550 689 c0 -5 5 -7 10 -4 6 3 10 8 10 11 0 2 -4 4 -10 4 -5 0 -10
-5 -10 -11z"/>
<path d="M1771 673 c-17 -32 -18 -103 -2 -103 8 0 22 110 16 118 -2 2 -8 -5
-14 -15z"/>
<path d="M1391 664 c0 -11 3 -14 6 -6 3 7 2 16 -1 19 -3 4 -6 -2 -5 -13z"/>
<path d="M238 663 c7 -3 16 -2 19 1 4 3 -2 6 -13 5 -11 0 -14 -3 -6 -6z"/>
<path d="M1436 647 c3 -10 9 -15 12 -12 3 3 0 11 -7 18 -10 9 -11 8 -5 -6z"/>
<path d="M2185 650 c3 -5 8 -10 11 -10 2 0 4 5 4 10 0 6 -5 10 -11 10 -5 0 -7
-4 -4 -10z"/>
<path d="M2143 623 c-13 -2 -23 -8 -23 -12 0 -12 36 -7 49 6 6 7 8 12 4 12 -4
-1 -18 -4 -30 -6z"/>
<path d="M1456 611 c-4 -5 2 -12 13 -16 24 -7 54 -52 45 -67 -5 -7 -3 -8 6 -3
13 8 12 -15 -5 -60 -5 -16 -5 -17 4 -5 9 13 11 12 16 -1 3 -9 5 -20 3 -25 -1
-5 4 -19 11 -32 7 -13 19 -98 28 -190 17 -189 21 -215 31 -208 11 7 -23 333
-49 469 -18 92 -26 116 -37 112 -12 -4 -13 -3 -2 10 10 13 9 15 -8 15 -11 0
-27 3 -35 6 -8 3 -18 1 -21 -5z"/>
<path d="M1586 604 c-4 -9 -4 -19 -1 -22 2 -3 7 3 11 12 4 9 4 19 1 22 -2 3
-7 -3 -11 -12z"/>
<path d="M1606 574 c-5 -12 -2 -15 10 -10 8 3 18 6 20 6 2 0 4 5 4 10 0 16
-27 11 -34 -6z"/>
<path d="M2743 535 c0 -27 2 -38 4 -22 2 15 2 37 0 50 -2 12 -4 0 -4 -28z"/>
<path d="M206 509 c-4 -23 -4 -44 -1 -47 3 -3 5 6 5 19 0 19 2 21 10 9 7 -11
10 -5 10 23 0 50 -16 47 -24 -4z"/>
<path d="M1418 506 c-3 -14 -1 -31 3 -38 6 -8 9 1 9 25 0 42 -6 48 -12 13z"/>
<path d="M1391 504 c0 -11 3 -14 6 -6 3 7 2 16 -1 19 -3 4 -6 -2 -5 -13z"/>
<path d="M232 430 c0 -19 2 -27 5 -17 2 9 2 25 0 35 -3 9 -5 1 -5 -18z"/>
<path d="M2276 429 c-3 -17 -5 -46 -5 -63 1 -18 5 -7 10 28 9 63 6 88 -5 35z"/>
<path d="M255 310 c11 -84 26 -164 31 -169 8 -8 -9 111 -23 159 -11 38 -12 39
-8 10z"/>
<path d="M2250 333 c0 -4 5 -15 10 -23 8 -13 10 -13 10 2 0 9 -4 20 -10 23 -5
3 -10 3 -10 -2z"/>
<path d="M2717 310 c-4 -14 -6 -45 -6 -70 1 -44 2 -43 10 15 9 64 7 96 -4 55z"/>
<path d="M2236 264 c-4 -20 -5 -38 -3 -40 3 -3 8 11 11 32 4 20 5 38 3 40 -3
3 -8 -11 -11 -32z"/>
<path d="M2681 234 c0 -11 3 -14 6 -6 3 7 2 16 -1 19 -3 4 -6 -2 -5 -13z"/>
<path d="M2693 138 c0 -35 1 -38 7 -18 11 34 12 60 2 60 -4 0 -8 -19 -9 -42z"/>
<path d="M2190 83 c0 -12 -5 -23 -12 -25 -8 -3 -8 -9 -1 -22 9 -16 11 -13 17
19 4 20 5 40 2 43 -3 3 -6 -4 -6 -15z"/>
<path d="M2681 53 c0 -12 -4 -30 -7 -40 -5 -17 -5 -17 6 0 6 10 9 28 7 40 -4
22 -4 22 -6 0z"/>
</g>
</svg>
