<?xml version="1.0" encoding="utf-8"?>
<svg version="1.0" width="89.000000pt" height="123.000000pt" viewBox="0 0 89.000000 123.000000" preserveAspectRatio="xMidYMid meet" xmlns="http://www.w3.org/2000/svg">
  <g transform="translate(0.000000,123.000000) scale(0.100000,-0.100000)" fill="#000000" stroke="none">
    <path d="M 415 1053 C 363 1043 315 1016 276 975 C 223 921 195 866 198 821 C 202 754 222 665 236 649 C 253 630 268 520 253 520 C 241 520 294 263 258 246 C 182 212 131 191 72 170 C 7 146 -5 137 5 120 C 9 114 17 116 27 126 C 36 134 50 140 59 137 C 68 135 81 139 88 146 C 95 153 107 157 115 154 C 123 150 130 153 130 160 C 130 167 137 170 146 166 C 154 163 158 164 155 170 C 152 176 156 180 166 180 C 175 180 199 190 218 202 C 249 221 253 221 247 206 C 243 196 244 191 250 195 C 256 198 260 195 261 188 C 262 170 270 80 273 53 C 274 40 278 30 282 30 C 286 30 287 23 284 15 C 280 7 283 0 290 0 C 298 0 300 9 296 28 C 293 43 288 87 285 125 C 281 190 281 191 290 145 C 295 118 302 74 305 48 C 308 21 316 0 321 0 C 327 0 329 12 326 27 C 306 134 297 240 307 271 L 318 305 L 319 268 C 321 193 366 0 381 0 C 387 0 386 8 380 21 C 367 44 375 94 389 85 C 394 83 401 87 404 96 C 407 104 406 108 400 105 C 394 102 390 104 390 110 C 390 117 383 120 375 116 C 366 113 360 116 360 126 C 360 134 364 139 369 136 C 374 133 381 137 384 146 C 388 157 395 158 406 152 C 415 147 441 147 464 151 C 497 157 508 155 518 142 C 529 127 530 128 530 143 C 530 152 534 160 538 160 C 557 160 559 146 545 114 C 537 95 534 80 537 80 C 540 80 537 73 530 66 C 522 56 522 45 528 34 C 535 21 542 32 559 85 C 570 123 580 159 580 167 C 580 174 585 180 590 180 C 601 180 598 160 574 73 C 566 45 560 16 560 8 C 561 -21 579 29 619 170 C 642 249 661 545 667 602 C 671 647 679 669 693 680 C 710 694 713 710 714 797 L 715 897 L 676 944 C 632 998 592 1026 540 1039 C 491 1052 438 1057 415 1053 Z M 480 1019 C 480 1012 491 1010 510 1013 C 539 1019 562 1006 538 997 C 531 995 543 993 565 994 C 592 995 604 991 602 983 C 601 976 608 970 617 970 C 632 970 633 968 620 960 C 608 952 609 950 626 950 C 638 950 653 943 660 935 C 671 922 670 921 656 926 C 647 929 640 927 640 921 C 640 915 646 910 654 910 C 662 910 673 896 679 879 C 688 853 687 849 675 853 C 666 857 663 854 667 844 C 670 837 676 830 680 830 C 689 830 688 804 679 795 C 676 792 665 808 655 829 C 646 851 631 871 623 874 C 615 877 611 883 613 888 C 616 892 612 903 605 913 C 597 924 589 927 586 921 C 581 914 571 914 554 920 C 540 926 516 930 501 930 C 486 930 465 939 455 950 C 445 961 432 970 427 970 C 421 970 424 964 435 957 C 449 946 450 941 440 935 C 429 928 431 925 446 918 C 465 910 452 911 380 923 C 366 925 363 925 373 923 C 382 921 390 914 390 908 C 390 901 371 899 338 903 C 309 906 296 906 309 902 L 332 895 L 300 868 C 282 853 271 837 275 831 C 284 816 300 817 300 833 C 300 861 338 877 421 884 C 467 888 507 895 508 900 C 513 913 556 913 581 900 C 592 894 600 879 600 864 C 600 845 604 839 615 844 C 626 848 630 843 630 825 C 630 811 634 800 638 800 C 642 800 653 780 663 755 C 672 730 675 712 670 715 C 664 718 660 713 659 703 C 659 693 655 658 651 625 C 647 592 647 550 651 532 C 687 370 369 281 295 433 C 284 455 274 494 273 519 C 272 544 268 613 264 672 C 259 752 260 783 270 794 C 280 807 279 812 267 825 C 248 843 243 836 244 793 C 245 775 241 760 236 760 C 232 760 230 773 232 790 C 234 806 232 821 226 823 C 219 825 220 840 228 868 C 235 892 245 908 250 905 C 256 901 260 906 260 914 C 260 922 269 935 280 943 C 291 951 297 960 293 964 C 289 968 294 968 304 964 C 319 958 321 960 315 971 C 308 983 309 983 324 971 C 340 958 341 958 338 975 C 334 999 380 1026 392 1007 C 398 998 400 999 400 1010 C 400 1023 401 1023 410 1010 C 416 1001 420 1000 420 1007 C 420 1018 438 1026 468 1029 C 474 1029 480 1025 480 1019 Z M 245 740 C 248 735 246 730 241 730 C 235 730 230 735 230 740 C 230 746 232 750 234 750 C 237 750 242 746 245 740 Z M 300 388 C 300 370 395 328 438 328 C 524 326 562 339 601 382 L 637 422 L 633 368 C 631 339 622 289 612 258 C 596 204 594 201 550 188 C 505 175 377 170 366 181 C 363 184 353 222 344 266 C 325 358 315 375 305 329 L 298 296 L 282 326 C 273 342 267 359 268 364 C 270 369 263 443 263 443 L 281 419 C 291 406 300 392 300 388 Z M 652 411 C 652 427 659 350 649 356 C 644 359 643 366 646 372 C 650 378 653 396 652 411 Z"/>
    <path d="M357 978 c-7 -26 -9 -23 26 -32 24 -6 27 -5 15 8 -7 7 -17 11 -22 8 -5 -3 -7 5 -4 16 4 12 3 22 -2 22 -4 0 -10 -10 -13 -22z"/>
    <path d="M555 980 l-30 -8 30 -1 c24 -1 27 -3 15 -12 -10 -7 -11 -9 -2 -7 8 2 13 7 12 12 -1 5 4 13 12 17 15 10 5 10 -37 -1z"/>
    <path d="M275 880 c3 -5 12 -7 20 -3 21 7 19 13 -6 13 -11 0 -18 -4 -14 -10z"/>
    <path d="M535 883 c11 -3 24 -9 30 -14 5 -5 14 -9 20 -9 5 0 1 7 -9 15 -11 8 -29 14 -40 14 -20 -1 -21 -1 -1 -6z"/>
    <path d="M525 753 c-44 -11 -32 -20 25 -19 51 1 58 3 43 13 -17 13 -32 14 -68 6z"/>
    <path d="M313 744 c-7 -3 -13 -13 -13 -22 0 -12 3 -13 12 -4 34 34 123 -3 111 -47 -4 -15 -1 -21 11 -21 9 0 16 2 16 4 0 11 -31 75 -38 80 -14 9 -86 16 -99 10z"/>
    <path d="M513 693 c-22 -8 -14 -23 10 -19 12 3 35 5 50 5 16 1 26 5 22 11 -6 10 -60 12 -82 3z"/>
    <path d="M310 675 c0 -12 4 -13 18 -7 9 5 31 9 49 7 18 -1 30 2 27 7 -3 4 -25 8 -50 8 -33 0 -44 -4 -44 -15z"/>
    <path d="M470 673 c0 -13 5 -23 10 -23 13 0 13 11 0 30 -8 12 -10 11 -10 -7z"/>
    <path d="M417 618 c-8 -12 -18 -33 -21 -45 -6 -20 -4 -21 36 -18 24 1 54 3 67 4 19 1 22 5 16 24 -3 12 -7 27 -7 34 -1 7 -5 10 -9 7 -4 -2 -10 2 -12 8 -3 7 -6 3 -6 -9 -1 -12 4 -25 9 -28 6 -3 10 -11 10 -16 0 -6 -5 -7 -10 -4 -6 4 -17 2 -25 -5 -9 -8 -15 -8 -20 0 -5 8 -11 8 -21 -1 -11 -9 -14 -8 -14 5 0 9 4 16 9 16 11 0 25 39 18 47 -3 2 -12 -6 -20 -19z"/>
    <path d="M393 513 c-29 -5 -29 -23 -2 -57 15 -20 29 -26 57 -26 26 0 33 3 23 9 -8 5 -20 7 -27 4 -6 -2 -15 1 -20 8 -5 9 5 11 44 6 46 -5 52 -4 66 18 9 13 16 28 16 33 0 9 -117 13 -157 5z m137 -22 c0 -12 -36 -21 -87 -21 -41 0 -65 14 -41 23 22 9 128 7 128 -2z"/>
    <path d="M565 410 c-3 -5 -1 -10 4 -10 6 0 11 5 11 10 0 6 -2 10 -4 10 -3 0 -8 -4 -11 -10z"/>
    <path d="M668 266 c3 -27 -18 -123 -55 -248 -3 -10 -1 -18 4 -18 6 0 20 39 32 88 13 48 27 96 31 107 18 41 10 -39 -10 -113 -24 -85 -24 -93 -5 -68 8 11 15 30 15 44 0 13 4 21 8 18 5 -3 9 15 10 40 0 25 5 50 11 57 5 7 8 22 5 33 -6 28 10 49 32 39 11 -4 31 -7 46 -6 14 1 29 -2 33 -8 8 -14 65 -15 65 -1 0 10 -54 27 -114 34 -21 3 -43 9 -50 14 -6 5 -22 12 -36 15 -24 6 -26 4 -22 -27z"/>
    <path d="M220 180 c0 -5 5 -10 11 -10 5 0 7 5 4 10 -3 6 -8 10 -11 10 -2 0 -4 -4 -4 -10z"/>
    <path d="M390 49 c0 -17 20 -49 31 -49 5 0 3 13 -6 30 -16 31 -25 38 -25 19z"/>
  </g>
</svg>